<svg width="12" height="12" viewBox="0 0 12 12" fill="none" xmlns="http://www.w3.org/2000/svg">
<path d="M4.87207 2.50781C5.08716 2.50781 5.27683 2.64857 5.33887 2.85449L5.9502 4.8877C6.09739 5.37709 6.44981 5.77892 6.91602 5.98828L8.44727 6.67578C8.62208 6.75454 8.73438 6.92834 8.73438 7.12012C8.73438 7.31189 8.62208 7.48569 8.44727 7.56445L6.91602 8.25195C6.44981 8.46132 6.09739 8.86315 5.9502 9.35254L5.33887 11.3857C5.27683 11.5917 5.08716 11.7324 4.87207 11.7324C4.68396 11.7324 4.51542 11.6248 4.43457 11.46L4.40527 11.3857L3.79395 9.35254C3.6652 8.92448 3.37961 8.56364 2.99805 8.33984L2.82812 8.25195L1.29688 7.56445C1.12206 7.48569 1.00977 7.31189 1.00977 7.12012C1.00977 6.92834 1.12206 6.75454 1.29688 6.67578L2.82812 5.98828C3.29433 5.77892 3.64675 5.37709 3.79395 4.8877L4.40527 2.85449L4.43457 2.78027C4.51542 2.61548 4.68396 2.50781 4.87207 2.50781ZM9.0293 0.521484C9.12707 0.521523 9.21306 0.586047 9.24121 0.679688L9.51953 1.60352C9.58645 1.82584 9.74623 2.00835 9.95801 2.10352L10.6543 2.41602L10.708 2.4502C10.7561 2.49163 10.7852 2.55265 10.7852 2.61816C10.7852 2.68368 10.7561 2.7447 10.708 2.78613L10.6543 2.82031L9.95801 3.13281C9.7726 3.21613 9.62716 3.36647 9.54883 3.55176L9.51953 3.63281L9.24121 4.55664C9.21306 4.65028 9.12707 4.71481 9.0293 4.71484C8.93149 4.71484 8.84554 4.65031 8.81738 4.55664L8.53906 3.63281C8.48049 3.43816 8.35034 3.27454 8.17676 3.17285L8.10059 3.13281L7.4043 2.82031C7.32471 2.78456 7.27344 2.70541 7.27344 2.61816C7.27344 2.53092 7.32471 2.45177 7.4043 2.41602L8.10059 2.10352L8.17676 2.06348C8.35034 1.96178 8.48049 1.79817 8.53906 1.60352L8.81738 0.679688L8.84863 0.615234C8.88936 0.557764 8.956 0.521484 9.0293 0.521484Z" fill="white"/>
</svg>
